<svg xmlns="http://www.w3.org/2000/svg" width="265pt" height="260pt" viewBox="0 0 265.27 260">
    <g class="graph">
        <path fill="#fff" d="M0 260V0h265.27v260z"/>
        <g class="node" transform="translate(4 256)">
            <ellipse cx="128.63" cy="-234" fill="none" stroke="#000" rx="128.63" ry="18"/>
            <text x="128.63" y="-228.95" font-family="Times,serif" font-size="14" text-anchor="middle">:feature:auth:userName:domain</text>
        </g>
        <g class="node" transform="translate(4 256)">
            <ellipse cx="163.63" cy="-162" fill="none" stroke="#000" rx="41.63" ry="18"/>
            <text x="163.63" y="-156.95" font-family="Times,serif" font-size="14" text-anchor="middle">:domain</text>
        </g>
        <g stroke="red" stroke-width="2" class="edge">
            <path fill="none" d="M141.29 40.3c3.81 7.63 8.39 16.78 12.65 25.3"/>
            <path fill="red" d="m156.39 62.68 1.34 10.51-7.6-7.38z"/>
        </g>
        <g class="node" transform="translate(4 256)">
            <ellipse cx="93.63" cy="-90" fill="none" stroke="#000" rx="65.17" ry="18"/>
            <text x="93.63" y="-84.95" font-family="Times,serif" font-size="14" text-anchor="middle">:core:common</text>
        </g>
        <g stroke="#000" class="edge">
            <path fill="none" d="M127.08 40.08c-3.26 10.34-7.33 23.82-10.45 35.92-5.18 20.14-10.05 43.1-13.57 60.65"/>
            <path d="m106.52 137.22-5.37 9.13-1.5-10.48z"/>
        </g>
        <g stroke="red" stroke-width="2" class="edge">
            <path fill="none" d="M151.75 110.88c-8.7 8.7-19.67 19.67-29.45 29.46"/>
            <path fill="red" d="m126.12 141.47-9.55 4.59 4.6-9.54z"/>
        </g>
        <g class="node" transform="translate(4 256)">
            <ellipse cx="139.63" cy="-18" fill="none" stroke="#000" rx="66.71" ry="18"/>
            <text x="139.63" y="-12.95" font-family="Times,serif" font-size="14" text-anchor="middle">:core:resources</text>
        </g>
        <g stroke="#000" class="edge">
            <path fill="none" d="M171.3 112.35c3.16 18.15 6.36 47.33.33 71.65-2.22 8.99-6.29 18.13-10.64 26.24"/>
            <path d="m164.03 211.98-8.04 6.91 1.98-10.41z"/>
        </g>
        <g stroke="red" stroke-width="2" class="edge">
            <path fill="none" d="M108.77 183.95c5.25 7.99 11.65 17.72 17.52 26.65"/>
            <path fill="red" d="m128.37 207.4 2.57 10.28-8.42-6.43z"/>
        </g>
    </g>
</svg>
