<svg xmlns="http://www.w3.org/2000/svg" width="251pt" height="260pt" viewBox="0 0 250.94 260">
    <g class="graph">
        <path fill="#fff" d="M0 260V0h250.94v260z"/>
        <g class="node" transform="translate(4 256)">
            <ellipse cx="121.47" cy="-234" fill="none" stroke="#000" rx="121.47" ry="18"/>
            <text x="121.47" y="-228.95" font-family="Times,serif" font-size="14" text-anchor="middle">:feature:auth:userInfo:domain</text>
        </g>
        <g class="node" transform="translate(4 256)">
            <ellipse cx="156.47" cy="-162" fill="none" stroke="#000" rx="41.63" ry="18"/>
            <text x="156.47" y="-156.95" font-family="Times,serif" font-size="14" text-anchor="middle">:domain</text>
        </g>
        <g stroke="red" stroke-width="2" class="edge">
            <path fill="none" d="M134.12 40.3c3.82 7.63 8.39 16.78 12.65 25.3"/>
            <path fill="red" d="m149.22 62.68 1.34 10.51-7.6-7.38z"/>
        </g>
        <g class="node" transform="translate(4 256)">
            <ellipse cx="86.47" cy="-90" fill="none" stroke="#000" rx="65.17" ry="18"/>
            <text x="86.47" y="-84.95" font-family="Times,serif" font-size="14" text-anchor="middle">:core:common</text>
        </g>
        <g stroke="#000" class="edge">
            <path fill="none" d="M119.92 40.08c-3.26 10.34-7.34 23.82-10.45 35.92-5.18 20.14-10.06 43.1-13.57 60.65"/>
            <path d="m99.35 137.22-5.36 9.13-1.51-10.48z"/>
        </g>
        <g stroke="red" stroke-width="2" class="edge">
            <path fill="none" d="m144.59 110.88-29.46 29.46"/>
            <path fill="red" d="m118.95 141.47-9.54 4.59 4.59-9.54z"/>
        </g>
        <g class="node" transform="translate(4 256)">
            <ellipse cx="132.47" cy="-18" fill="none" stroke="#000" rx="66.71" ry="18"/>
            <text x="132.47" y="-12.95" font-family="Times,serif" font-size="14" text-anchor="middle">:core:resources</text>
        </g>
        <g stroke="#000" class="edge">
            <path fill="none" d="M164.13 112.35c3.17 18.15 6.37 47.33.34 71.65-2.23 8.99-6.29 18.13-10.65 26.24"/>
            <path d="m156.86 211.98-8.04 6.91 1.98-10.41z"/>
        </g>
        <g stroke="red" stroke-width="2" class="edge">
            <path fill="none" d="M101.6 183.95c5.26 7.99 11.65 17.72 17.52 26.65"/>
            <path fill="red" d="m121.21 207.4 2.56 10.28-8.41-6.43z"/>
        </g>
    </g>
</svg>
