<svg xmlns="http://www.w3.org/2000/svg" width="448" height="404pt" viewBox="0 0 336.04 404">
    <g class="graph">
        <path fill="#fff" d="M0 404V0h336.04v404z"/>
        <g class="node" transform="translate(4 400)">
            <ellipse cx="148" cy="-378" fill="none" stroke="#000" rx="75.41" ry="18"/>
            <text x="148" y="-372.95" font-family="Times,serif" font-size="14" text-anchor="middle">:core:common-ui</text>
        </g>
        <g class="node" transform="translate(4 400)">
            <ellipse cx="148" cy="-234" fill="none" stroke="#000" rx="82.06" ry="18"/>
            <text x="148" y="-228.95" font-family="Times,serif" font-size="14" text-anchor="middle">:core:designsystem</text>
        </g>
        <g stroke="#000" class="edge">
            <path fill="none" d="M152 40.41v96.17"/>
            <path d="m155.5 136.38-3.5 10-3.5-10z"/>
        </g>
        <g class="node" transform="translate(4 400)">
            <ellipse cx="168" cy="-162" fill="none" stroke="#000" rx="41.63" ry="18"/>
            <text x="168" y="-156.95" font-family="Times,serif" font-size="14" text-anchor="middle">:domain</text>
        </g>
        <g stroke="#000" class="edge">
            <path fill="none" d="M130.2 39.53C94 69.04 28.54 132.54 61 184c13.82 21.91 39.46 34.95 62.62 42.62"/>
            <path d="m124.37 223.19 8.56 6.24-10.59.46z"/>
        </g>
        <g class="node" transform="translate(4 400)">
            <ellipse cx="238" cy="-90" fill="none" stroke="#000" rx="65.17" ry="18"/>
            <text x="238" y="-84.95" font-family="Times,serif" font-size="14" text-anchor="middle">:core:common</text>
        </g>
        <g stroke="#000" class="edge">
            <path fill="none" d="M224.2 27.67C257.5 33.88 294.19 47.35 315 76c47.21 65-15.49 161.46-51.24 207.17"/>
            <path d="m266.52 285.33-8.98 5.62 3.52-10z"/>
        </g>
        <g class="node" transform="translate(4 400)">
            <ellipse cx="119" cy="-18" fill="none" stroke="#000" rx="66.71" ry="18"/>
            <text x="119" y="-12.95" font-family="Times,serif" font-size="14" text-anchor="middle">:core:resources</text>
        </g>
        <g stroke="#000" class="edge">
            <path fill="none" d="M116.17 38.3C72.37 59.71 4 103.04 4 165v74c0 52.19 47.8 95.26 82.81 119.81"/>
            <path d="m88.72 355.88 6.32 8.51-10.24-2.71z"/>
        </g>
        <g class="node" transform="translate(4 400)">
            <ellipse cx="241" cy="-306" fill="none" stroke="#000" rx="61.08" ry="18"/>
            <text x="241" y="-300.95" font-family="Times,serif" font-size="14" text-anchor="middle">:core:firebase</text>
        </g>
        <g stroke="red" stroke-width="2" class="edge">
            <path fill="none" d="M174.04 39.59c12.02 9.04 27.08 20.38 40.23 30.28"/>
            <path fill="red" d="m215.14 66.14 5.88 8.81-10.09-3.22z"/>
        </g>
        <g stroke="red" stroke-width="2" class="edge">
            <path fill="none" d="M156.94 184.3c2.14 7.46 4.68 16.38 7.07 24.73"/>
            <path fill="red" d="m166.9 206.41-.62 10.58-6.11-8.66z"/>
        </g>
        <g stroke="#000" class="edge">
            <path fill="none" d="M182.75 183.05c14.34 9 30.37 21.54 40.25 36.95 11.54 18 16.19 41.85 18.01 60.33"/>
            <path d="m244.48 279.84-2.75 10.23-4.23-9.72z"/>
        </g>
        <g stroke="#000" class="edge">
            <path fill="none" d="M138.85 184.09c-6.77 9.9-14.34 22.95-17.85 35.91-12.19 44.98-7.65 99.65-3.01 132.32"/>
            <path d="m121.45 351.78-1.94 10.42-4.98-9.35z"/>
        </g>
        <g stroke="red" stroke-width="2" class="edge">
            <path fill="none" d="m187.88 254.88 29.46 29.46"/>
            <path fill="red" d="m218.47 280.52 4.59 9.54-9.54-4.59z"/>
        </g>
        <g stroke="#000" class="edge">
            <path fill="none" d="M166.09 256.13c-8.31 24.09-23.56 68.27-33.51 97.1"/>
            <path d="m136 354.07-6.57 8.31-.05-10.59z"/>
        </g>
        <g stroke="red" stroke-width="2" class="edge">
            <path fill="none" d="M215.29 326.71c-16.34 9.61-37.49 22.05-55.41 32.6"/>
            <path fill="red" d="m163.03 361.51-10.39 2.06 6.84-8.09z"/>
        </g>
        <g stroke="red" stroke-width="2" class="edge">
            <path fill="none" d="M223.43 111.24c-12.03 9.05-27.23 20.49-40.51 30.48"/>
            <path fill="red" d="m186.61 143.33-10.09 3.22 5.88-8.81z"/>
        </g>
        <g stroke="#000" class="edge">
            <path fill="none" d="M248.85 112.15c3.29 18.76 5.84 49.18-5.85 71.85-7.36 14.27-20.52 25.72-33.53 34.27"/>
            <path d="m211.3 221.25-10.36 2.21 6.73-8.19z"/>
        </g>
        <g stroke="#000" class="edge">
            <path fill="none" d="M251.65 112.37c3.55 10.21 7.55 23.46 9.35 35.63 6.85 46.37-3.26 100.55-11.15 132.75"/>
            <path d="m253.32 281.28-5.87 8.82-.91-10.56z"/>
        </g>
    </g>
</svg>
