<svg xmlns="http://www.w3.org/2000/svg" width="245pt" height="260pt" viewBox="0 0 244.8 260">
    <g class="graph">
        <path fill="#fff" d="M0 260V0h244.8v260z"/>
        <g class="node" transform="translate(4 256)">
            <ellipse cx="118.4" cy="-234" fill="none" stroke="#000" rx="118.4" ry="18"/>
            <text x="118.4" y="-228.95" font-family="Times,serif" font-size="14" text-anchor="middle">:feature:auth:register:domain</text>
        </g>
        <g class="node" transform="translate(4 256)">
            <ellipse cx="153.4" cy="-162" fill="none" stroke="#000" rx="41.63" ry="18"/>
            <text x="153.4" y="-156.95" font-family="Times,serif" font-size="14" text-anchor="middle">:domain</text>
        </g>
        <g stroke="red" stroke-width="2" class="edge">
            <path fill="none" d="M131.05 40.3c3.81 7.63 8.39 16.78 12.65 25.3"/>
            <path fill="red" d="m146.15 62.68 1.34 10.51-7.6-7.38z"/>
        </g>
        <g class="node" transform="translate(4 256)">
            <ellipse cx="83.4" cy="-90" fill="none" stroke="#000" rx="65.17" ry="18"/>
            <text x="83.4" y="-84.95" font-family="Times,serif" font-size="14" text-anchor="middle">:core:common</text>
        </g>
        <g stroke="#000" class="edge">
            <path fill="none" d="M116.85 40.08C113.59 50.42 109.51 63.9 106.4 76c-5.18 20.14-10.06 43.1-13.57 60.65"/>
            <path d="m96.28 137.22-5.36 9.13-1.51-10.48z"/>
        </g>
        <g stroke="red" stroke-width="2" class="edge">
            <path fill="none" d="M141.51 110.88c-8.69 8.7-19.66 19.67-29.45 29.46"/>
            <path fill="red" d="m115.88 141.47-9.54 4.59 4.59-9.54z"/>
        </g>
        <g class="node" transform="translate(4 256)">
            <ellipse cx="129.4" cy="-18" fill="none" stroke="#000" rx="66.71" ry="18"/>
            <text x="129.4" y="-12.95" font-family="Times,serif" font-size="14" text-anchor="middle">:core:resources</text>
        </g>
        <g stroke="#000" class="edge">
            <path fill="none" d="M161.06 112.35c3.16 18.15 6.37 47.33.34 71.65-2.23 8.99-6.29 18.13-10.65 26.24"/>
            <path d="m153.79 211.98-8.04 6.91 1.98-10.41z"/>
        </g>
        <g stroke="red" stroke-width="2" class="edge">
            <path fill="none" d="M98.53 183.95c5.26 7.99 11.65 17.72 17.52 26.65"/>
            <path fill="red" d="m118.14 207.4 2.56 10.28-8.41-6.43z"/>
        </g>
    </g>
</svg>
