<svg xmlns="http://www.w3.org/2000/svg" width="419pt" height="260pt" viewBox="0 0 418.81 260">
    <g class="graph">
        <path fill="#fff" d="M0 260V0h418.81v260z"/>
        <g class="node" transform="translate(4 256)">
            <ellipse cx="205.41" cy="-234" fill="none" stroke="#000" rx="205.41" ry="18"/>
            <text x="205.41" y="-228.95" font-family="Times,serif" font-size="14" text-anchor="middle">:feature:home:chat:newChat:newGroupChat:domain</text>
        </g>
        <g class="node" transform="translate(4 256)">
            <ellipse cx="240.41" cy="-162" fill="none" stroke="#000" rx="41.63" ry="18"/>
            <text x="240.41" y="-156.95" font-family="Times,serif" font-size="14" text-anchor="middle">:domain</text>
        </g>
        <g stroke="red" stroke-width="2" class="edge">
            <path fill="none" d="M218.06 40.3c3.81 7.63 8.39 16.78 12.65 25.3"/>
            <path fill="red" d="m233.16 62.68 1.34 10.51-7.6-7.38z"/>
        </g>
        <g class="node" transform="translate(4 256)">
            <ellipse cx="170.41" cy="-90" fill="none" stroke="#000" rx="65.17" ry="18"/>
            <text x="170.41" y="-84.95" font-family="Times,serif" font-size="14" text-anchor="middle">:core:common</text>
        </g>
        <g stroke="#000" class="edge">
            <path fill="none" d="M203.86 40.08C200.6 50.42 196.52 63.9 193.41 76c-5.18 20.14-10.06 43.1-13.58 60.65"/>
            <path d="m183.29 137.22-5.37 9.13-1.5-10.48z"/>
        </g>
        <g stroke="red" stroke-width="2" class="edge">
            <path fill="none" d="M228.52 110.88c-8.7 8.7-19.67 19.67-29.45 29.46"/>
            <path fill="red" d="m202.89 141.47-9.55 4.59 4.6-9.54z"/>
        </g>
        <g class="node" transform="translate(4 256)">
            <ellipse cx="216.41" cy="-18" fill="none" stroke="#000" rx="66.71" ry="18"/>
            <text x="216.41" y="-12.95" font-family="Times,serif" font-size="14" text-anchor="middle">:core:resources</text>
        </g>
        <g stroke="#000" class="edge">
            <path fill="none" d="M248.07 112.35c3.16 18.15 6.37 47.33.34 71.65-2.23 8.99-6.3 18.13-10.65 26.24"/>
            <path d="m240.8 211.98-8.04 6.91 1.98-10.41z"/>
        </g>
        <g stroke="red" stroke-width="2" class="edge">
            <path fill="none" d="M185.54 183.95c5.26 7.99 11.65 17.72 17.52 26.65"/>
            <path fill="red" d="m205.14 207.4 2.57 10.28-8.42-6.43z"/>
        </g>
    </g>
</svg>
