<svg xmlns="http://www.w3.org/2000/svg" width="1000" height="476pt" viewBox="0 0 750 476">
    <g class="graph">
        <path fill="#fff" d="M0 476V0h750v476z"/>
        <g class="node" transform="translate(4 472)">
            <ellipse cx="429" cy="-450" fill="none" stroke="#000" rx="88.71" ry="18"/>
            <text x="429" y="-444.95" font-family="Times,serif" font-size="14" text-anchor="middle">:feature:home:search</text>
        </g>
        <g class="node" transform="translate(4 472)">
            <ellipse cx="209" cy="-90" fill="none" stroke="#000" rx="65.17" ry="18"/>
            <text x="209" y="-84.95" font-family="Times,serif" font-size="14" text-anchor="middle">:core:common</text>
        </g>
        <g stroke="#000" class="edge">
            <path fill="none" d="M352.76 30.01C272.44 38.15 155.31 53.42 116 76c-44.61 25.62-74 37.56-74 89v74c0 63.05 69.65 103.46 120.05 124.45"/>
            <path d="m163.09 360.09 7.98 6.98-10.58-.48z"/>
        </g>
        <g class="node" transform="translate(4 472)">
            <ellipse cx="196" cy="-378" fill="none" stroke="#000" rx="75.41" ry="18"/>
            <text x="196" y="-372.95" font-family="Times,serif" font-size="14" text-anchor="middle">:core:common-ui</text>
        </g>
        <g stroke="red" stroke-width="2" class="edge">
            <path fill="none" d="M384.72 37.5c-37.32 11.22-89.07 26.76-128.31 38.55"/>
            <path fill="red" d="m258.93 78.95-10.59-.47 8.57-6.23z"/>
        </g>
        <g class="node" transform="translate(4 472)">
            <ellipse cx="429" cy="-306" fill="none" stroke="#000" rx="70.8" ry="18"/>
            <text x="429" y="-300.95" font-family="Times,serif" font-size="14" text-anchor="middle">:core:navigation</text>
        </g>
        <g stroke="#000" class="edge">
            <path fill="none" d="M433 40.41v96.17"/>
            <path d="m436.5 136.38-3.5 10-3.5-10z"/>
        </g>
        <g class="node" transform="translate(4 472)">
            <ellipse cx="372" cy="-162" fill="none" stroke="#000" rx="41.63" ry="18"/>
            <text x="372" y="-156.95" font-family="Times,serif" font-size="14" text-anchor="middle">:domain</text>
        </g>
        <g stroke="#000" class="edge">
            <path fill="none" d="M452.12 39.76C482.88 68.85 537.52 130.69 513 184c-10.27 22.34-23.69 19.59-42 36-24.23 21.71-51.25 47.15-70.26 65.25"/>
            <path d="m403.35 287.6-9.65 4.37 4.82-9.43z"/>
        </g>
        <g class="node" transform="translate(4 472)">
            <ellipse cx="224" cy="-234" fill="none" stroke="#000" rx="82.06" ry="18"/>
            <text x="224" y="-228.95" font-family="Times,serif" font-size="14" text-anchor="middle">:core:designsystem</text>
        </g>
        <g stroke="#000" class="edge">
            <path fill="none" d="M416.57 40.15C380.5 77.81 294.22 167.87 252.04 211.9"/>
            <path d="m254.72 214.17-9.45 4.8 4.39-9.64z"/>
        </g>
        <g class="node" transform="translate(4 472)">
            <ellipse cx="329" cy="-18" fill="none" stroke="#000" rx="66.71" ry="18"/>
            <text x="329" y="-12.95" font-family="Times,serif" font-size="14" text-anchor="middle">:core:resources</text>
        </g>
        <g stroke="#000" class="edge">
            <path fill="none" d="M519.36 26.34C612 35.1 746 65.05 746 165v146c0 71.62-224.89 114.86-342.76 132.61"/>
            <path d="m404.07 447.02-10.4-1.99 9.38-4.93z"/>
        </g>
        <g class="node" transform="translate(4 472)">
            <ellipse cx="595" cy="-234" fill="none" stroke="#000" rx="119.42" ry="18"/>
            <text x="595" y="-228.95" font-family="Times,serif" font-size="14" text-anchor="middle">:feature:home:search:domain</text>
        </g>
        <g stroke="#000" class="edge">
            <path fill="none" d="M484.47 37.09C506.05 45.31 529.83 57.76 546 76c33.43 37.73 45.85 97.05 50.41 132.18"/>
            <path d="m599.88 207.68-2.33 10.34-4.63-9.54z"/>
        </g>
        <g stroke="red" stroke-width="2" class="edge">
            <path fill="none" d="M239.93 398.71c16.48 9.61 37.81 22.05 55.88 32.6"/>
            <path fill="red" d="m296.26 427.51 6.87 8.07-10.4-2.02z"/>
        </g>
        <g stroke="#000" class="edge">
            <path fill="none" d="M151.5 108.21c-19.89 8.07-40.92 20.64-52.5 39.79-8.28 13.69-2.61 20.21 0 36 11.04 66.7 10.42 88.49 49 144 8.05 11.58 19.32 21.99 30.21 30.45"/>
            <path d="m180.01 355.43 5.97 8.75-10.13-3.12z"/>
        </g>
        <g stroke="#000" class="edge">
            <path fill="none" d="M227.29 111.17C260.48 132.2 316.05 171.98 348 220c12.15 18.25 19.28 42.08 23.3 60.49"/>
            <path d="m374.71 279.72-1.49 10.49-5.37-9.13z"/>
        </g>
        <g stroke="#000" class="edge">
            <path fill="none" d="M216.89 112.01c8.4 9.68 17.69 22.53 22.11 35.99 6.49 19.78 3.2 43.18-1.42 61.02"/>
            <path d="m241.01 209.76-6.15 8.63-.58-10.58z"/>
        </g>
        <g stroke="#000" class="edge">
            <path fill="none" d="M149.53 107.8C91.45 125.93 4 165.15 4 237v74c0 108.76 153.44 135.2 250.74 141.03"/>
            <path d="m254.71 448.52 9.8 4.03-10.17 2.96z"/>
        </g>
        <g class="node" transform="translate(4 472)">
            <ellipse cx="165" cy="-306" fill="none" stroke="#000" rx="61.08" ry="18"/>
            <text x="165" y="-300.95" font-family="Times,serif" font-size="14" text-anchor="middle">:core:firebase</text>
        </g>
        <g stroke="red" stroke-width="2" class="edge">
            <path fill="none" d="M192.34 112.3c-3.38 7.63-7.43 16.78-11.21 25.3"/>
            <path fill="red" d="m185.05 137.4-7.25 7.73.85-10.56z"/>
        </g>
        <g stroke="#000" class="edge">
            <path fill="none" d="M426.12 184.13c-9.67 24.09-27.4 68.27-38.97 97.1"/>
            <path d="m390.44 282.43-6.98 7.98.48-10.59z"/>
        </g>
        <g stroke="red" stroke-width="2" class="edge">
            <path fill="none" d="M347.23 323.35c-24.79 10.65-61.01 26.21-89.57 38.47"/>
            <path fill="red" d="m260.47 364.42-10.57.73 7.81-7.16z"/>
        </g>
        <g stroke="#000" class="edge">
            <path fill="none" d="M370.81 328.13c-7.26 23.99-20.55 67.88-29.28 96.71"/>
            <path d="m344.89 425.81-6.25 8.55-.45-10.58z"/>
        </g>
        <g stroke="#000" class="edge">
            <path fill="none" d="M226.16 256.41c-2.53 23.98-7.12 67.45-10.16 96.17"/>
            <path d="m219.5 352.81-4.53 9.57-2.43-10.31z"/>
        </g>
        <g stroke="red" stroke-width="2" class="edge">
            <path fill="none" d="M261.58 254.88c22.78 10.78 52.93 25.04 76.56 36.22"/>
            <path fill="red" d="m338.21 287.26 7.55 7.44-10.54-1.12z"/>
        </g>
        <g stroke="#000" class="edge">
            <path fill="none" d="M236.42 256.15c18.16 37.02 61.16 124.67 83.14 169.46"/>
            <path d="m322.62 423.89 1.26 10.52-7.55-7.44z"/>
        </g>
        <g stroke="#000" class="edge">
            <path fill="none" d="M571.33 255.91C538.1 275.6 480.18 307.98 427 328c-48.83 18.39-106.34 32.22-149.43 41.14"/>
            <path d="m278.36 372.55-10.5-1.44 9.1-5.42z"/>
        </g>
        <g stroke="#000" class="edge">
            <path fill="none" d="M548.95 254.71c-38.75 12.16-91.9 28.85-129.02 40.5"/>
            <path d="m420.99 298.55-10.59-.35 8.49-6.33z"/>
        </g>
        <g stroke="#000" class="edge">
            <path fill="none" d="M577.68 256.15c-47.43 38.16-161.74 130.13-215.64 173.48"/>
            <path d="m364.48 432.16-9.98 3.54 5.6-8.99z"/>
        </g>
        <g stroke="#000" class="edge">
            <path fill="none" d="M155.44 184.03c-7 9.88-14.81 22.92-18.44 35.97-4.29 15.41-4.32 20.59 0 36 10.58 37.78 36.07 75.49 54.62 99.45"/>
            <path d="m194.18 353.04 3.47 10.01-8.96-5.66z"/>
        </g>
        <g stroke="#000" class="edge">
            <path fill="none" d="M220.03 176.23c31.12 7.63 70.29 21.03 98.97 43.77 20.5 16.26 35.85 42.02 45.42 61.65"/>
            <path d="m367.47 279.91 1.04 10.54-7.39-7.6z"/>
        </g>
        <g stroke="red" stroke-width="2" class="edge">
            <path fill="none" d="M183.28 183.95c6.96 8.25 15.47 18.35 23.2 27.51"/>
            <path fill="red" d="m208.13 207.99 3.77 9.91-9.12-5.39z"/>
        </g>
    </g>
</svg>
