<svg xmlns="http://www.w3.org/2000/svg" width="368" height="260pt" viewBox="0 0 275.51 260">
    <g class="graph">
        <path fill="#fff" d="M0 260V0h275.51v260z"/>
        <g class="node" transform="translate(4 256)">
            <ellipse cx="133.75" cy="-234" fill="none" stroke="#000" rx="133.75" ry="18"/>
            <text x="133.75" y="-228.95" font-family="Times,serif" font-size="14" text-anchor="middle">:feature:home:dashboard:domain</text>
        </g>
        <g class="node" transform="translate(4 256)">
            <ellipse cx="168.75" cy="-162" fill="none" stroke="#000" rx="41.63" ry="18"/>
            <text x="168.75" y="-156.95" font-family="Times,serif" font-size="14" text-anchor="middle">:domain</text>
        </g>
        <g stroke="red" stroke-width="2" class="edge">
            <path fill="none" d="M146.4 40.3c3.82 7.63 8.39 16.78 12.65 25.3"/>
            <path fill="red" d="m161.5 62.68 1.35 10.51-7.61-7.38z"/>
        </g>
        <g class="node" transform="translate(4 256)">
            <ellipse cx="98.75" cy="-90" fill="none" stroke="#000" rx="65.17" ry="18"/>
            <text x="98.75" y="-84.95" font-family="Times,serif" font-size="14" text-anchor="middle">:core:common</text>
        </g>
        <g stroke="#000" class="edge">
            <path fill="none" d="M132.2 40.08c-3.26 10.34-7.33 23.82-10.45 35.92-5.18 20.14-10.05 43.1-13.57 60.65"/>
            <path d="m111.64 137.22-5.37 9.13-1.5-10.48z"/>
        </g>
        <g stroke="red" stroke-width="2" class="edge">
            <path fill="none" d="M156.87 110.88c-8.7 8.7-19.67 19.67-29.45 29.46"/>
            <path fill="red" d="m131.24 141.47-9.55 4.59 4.6-9.54z"/>
        </g>
        <g class="node" transform="translate(4 256)">
            <ellipse cx="144.75" cy="-18" fill="none" stroke="#000" rx="66.71" ry="18"/>
            <text x="144.75" y="-12.95" font-family="Times,serif" font-size="14" text-anchor="middle">:core:resources</text>
        </g>
        <g stroke="#000" class="edge">
            <path fill="none" d="M176.41 112.35c3.17 18.15 6.37 47.33.34 71.65-2.23 8.99-6.29 18.13-10.64 26.24"/>
            <path d="m169.14 211.98-8.03 6.91 1.97-10.41z"/>
        </g>
        <g stroke="red" stroke-width="2" class="edge">
            <path fill="none" d="M113.89 183.95c5.25 7.99 11.65 17.72 17.51 26.65"/>
            <path fill="red" d="m133.49 207.4 2.57 10.28-8.42-6.43z"/>
        </g>
    </g>
</svg>
