<svg xmlns="http://www.w3.org/2000/svg" width="434pt" height="260pt" viewBox="0 0 434.17 260">
    <g class="graph">
        <path fill="#fff" d="M0 260V0h434.17v260z"/>
        <g class="node" transform="translate(4 256)">
            <ellipse cx="213.08" cy="-234" fill="none" stroke="#000" rx="213.08" ry="18"/>
            <text x="213.08" y="-228.95" font-family="Times,serif" font-size="14" text-anchor="middle">:feature:home:profile:profileEdit:selectBranch:domain</text>
        </g>
        <g class="node" transform="translate(4 256)">
            <ellipse cx="248.08" cy="-162" fill="none" stroke="#000" rx="41.63" ry="18"/>
            <text x="248.08" y="-156.95" font-family="Times,serif" font-size="14" text-anchor="middle">:domain</text>
        </g>
        <g stroke="red" stroke-width="2" class="edge">
            <path fill="none" d="M225.73 40.3c3.82 7.63 8.39 16.78 12.65 25.3"/>
            <path fill="red" d="m240.84 62.68 1.34 10.51-7.61-7.38z"/>
        </g>
        <g class="node" transform="translate(4 256)">
            <ellipse cx="178.08" cy="-90" fill="none" stroke="#000" rx="65.17" ry="18"/>
            <text x="178.08" y="-84.95" font-family="Times,serif" font-size="14" text-anchor="middle">:core:common</text>
        </g>
        <g stroke="#000" class="edge">
            <path fill="none" d="M211.53 40.08C208.27 50.42 204.2 63.9 201.08 76c-5.18 20.14-10.05 43.1-13.57 60.65"/>
            <path d="m190.97 137.22-5.37 9.13-1.5-10.48z"/>
        </g>
        <g stroke="red" stroke-width="2" class="edge">
            <path fill="none" d="M236.2 110.88c-8.7 8.7-19.67 19.67-29.45 29.46"/>
            <path fill="red" d="m210.57 141.47-9.55 4.59 4.6-9.54z"/>
        </g>
        <g class="node" transform="translate(4 256)">
            <ellipse cx="224.08" cy="-18" fill="none" stroke="#000" rx="66.71" ry="18"/>
            <text x="224.08" y="-12.95" font-family="Times,serif" font-size="14" text-anchor="middle">:core:resources</text>
        </g>
        <g stroke="#000" class="edge">
            <path fill="none" d="M255.74 112.35c3.17 18.15 6.37 47.33.34 71.65-2.23 8.99-6.29 18.13-10.64 26.24"/>
            <path d="m248.47 211.98-8.03 6.91 1.97-10.41z"/>
        </g>
        <g stroke="red" stroke-width="2" class="edge">
            <path fill="none" d="M193.22 183.95c5.25 7.99 11.65 17.72 17.51 26.65"/>
            <path fill="red" d="m212.82 207.4 2.57 10.28-8.42-6.43z"/>
        </g>
    </g>
</svg>
